<svg xmlns="http://www.w3.org/2000/svg" version="1.1" xmlns:xlink="http://www.w3.org/1999/xlink" xmlns:svgjs="http://svgjs.com/svgjs" width="512" height="512" x="0" y="0" viewBox="0 0 73 73" style="enable-background:new 0 0 512 512" xml:space="preserve"><g><g id="_x39_3"><path d="m22.7295837 25.9190826c-.8779297-.1982422-1.8193359.1933594-2.5146484 1.0498047-.1367188.1679688-.3237305.3974609-.4599609.6972656 0 0-.0004883 0-.0004883.0009766-1.2233829 2.6971989-.9275818 10.259903-.8569336 27.7548828.0048828 1.1669922.0102539 2.3740234.8232422 3.4189453 1.653513 2.1230278 4.6956615.802597 4.5854492-4.4560547-.0977879-4.6274261-.1716976-19.4820747.1289063-22.6826172.199707-2.1035156.5014648-5.2832031-1.7055665-5.7832031zm.128418 6.6503907c-.1301212 2.3679276-.1864376 15.4516602-.0517578 21.8466797.0234375 1.1113281-.1035156 2.0214844-.3876953 2.7832031-.2597656.6953125-.6401367 1.0517578-.8837891 1.0898438-.1835938.0361328-.4331055-.1171875-.6303711-.3701172-.4990234-.640625-.5024414-1.4628906-.5068359-2.5029297-.0598583-14.8665886-.354044-24.7542992.7226563-27.1289063.1700611-.3750877.7710705-1.0151939 1.277832-.9052734 1.118288.252594.5262947 3.9935016.4599609 5.1875z" fill="#ffffff" data-original="#000000"></path><path d="m34.183197 26.4776764c-.8793945-.2001953-1.8183594.1933594-2.5146484 1.0507813-.1367188.1679688-.3242188.3984375-.4594727.6962891 0 0-.0004883 0-.0004883.0009766-1.1688652 2.575489-.8695316 9.9274673-.9194336 15.9208984-.0211754 2.5976448.0060043 5.2438278.03125 7.8417969.0445175 4.6675339-.1701508 6.0943642.8540039 7.4111328 1.6462021 2.1136436 4.6954308.7887039 4.5854492-4.4550781-.09589-4.5631599-.164135-19.5692368.1289063-22.6806641.2001953-2.1054688.5019532-5.2861329-1.7055664-5.7861329zm.128418 6.6513672c-.1292992 2.3502579-.1857147 15.4489212-.0517578 21.8466797.0234375 1.1103516-.1035156 2.0205078-.3876953 2.7822266-.2592773.6953125-.6401367 1.0517578-.8837891 1.0898438-.1826172.0273438-.4331055-.1162109-.6303711-.3701172-.6248169-.8026924-.4898281-1.4871216-.5375977-6.5029297l-.0029297-.2998047c-.0669975-6.9021301-.0215702-5.743866-.0170898-10.8691406.0014763-3.6336136-.0811958-10.0753479.7739258-11.9599609.1748085-.3825989.7772789-1.0144367 1.2773438-.9052734 1.1188812.2537783.5261077 3.9978273.4599609 5.1884764z" fill="#ffffff" data-original="#000000"></path><path d="m44.7989197 26.338028c-.8789063-.2001953-1.8188477.1943359-2.5146484 1.0507813-.1367188.1679688-.3242188.3984375-.4594727.6962891 0 0-.0004883 0-.0004883.0009766-1.1325378 2.4954472-.9356232 8.3760796-.8574219 27.7558594.0048828 1.1669922.0102539 2.3730469.8232422 3.4179688 1.6462021 2.1136436 4.6954308.7887039 4.5854492-4.4550781-.09589-4.5631599-.164135-19.5692368.1289063-22.6806641.2001953-2.105469.5019531-5.286133-1.7055664-5.786133zm.1284179 6.6513671c-.1335487 2.4274979-.1982574 14.8499146-.0517578 21.8466797.0234375 1.1103516-.1035156 2.0205078-.3876953 2.7822266-.2592773.6953125-.6401367 1.0517578-.8837891 1.0898438-.1865234.0292969-.4326172-.1162109-.6303711-.3701172-.6284676-.8068008-.4901237-1.5181351-.5375977-6.5029297-.0564003-5.7901344-.014843-13.9815331-.0068359-14.7734375.0176239-1.9521446.0002327-6.6793728.7607422-8.3554688.1720505-.3765602.7761421-1.0201988 1.2773438-.9052734 1.1188812.2537784.5261078 3.9978275.4599609 5.1884765z" fill="#ffffff" data-original="#000000"></path><path d="m58.9082947 6.572403c-.3833008-.1533203-.8208008.0302734-.9765625.4140625l-2.371582 5.8671875c-.1552734.3837891.0302734.8212891.4140625.9765625.3853836.1549692.8214073-.0306635.9765625-.4140625l2.371582-5.8671875c.1552734-.3837891-.0302735-.8212891-.4140625-.9765625z" fill="#ffffff" data-original="#000000"></path><path d="m64.4742126 11.9708405-5.4282226 3.7998046c-.3393555.2373047-.421875.7050781-.184082 1.0439453.2371101.3405457.7062912.4217739 1.0444336.1845703l5.4282227-3.7998047c.3393555-.2373047.421875-.7050781.184082-1.0439453-.2368165-.3398437-.7045899-.4208984-1.0444337-.1845702z" fill="#ffffff" data-original="#000000"></path><path d="m67.3140564 21.2989655c.0366211-.4121094-.2680664-.7763672-.6806641-.8134766l-6.7138672-.5966797c-.402832-.0429688-.7768555.2685547-.8134766.6806641s.2680664.7763672.6806641.8134766l6.7138672.5966797c.4193268.0364627.7773438-.2745648.8134766-.6806641z" fill="#ffffff" data-original="#000000"></path><path d="m8.9532166 51.2236481c.2399292 3.6239014.6068726 7.4299316 2.6641235 10.4228516 2.8551025 4.1534424 8.2125244 5.6968994 13.1983643 6.4346924 9.3911285 1.3898773 18.8691254.8705826 26.6723633-.9320068 1.1403809-.2634277 2.4655151-.7489014 2.7350464-1.8878174.2252808-.9519043-.4726563-1.9274902-1.3538208-2.3521729-.5976563-.2880859-1.258667-.3776855-1.9267578-.4086914 2.133728-1.9776611 3.4592285-4.6280518 3.5355835-7.536499.2498779-10.3579102-.2636719-20.6586914-1.6008911-32.3276367.124424-.0345802.0226784-.0105095 1.2332153-.050293 2.6325722-.0869579 4.1740799-3.019022 2.737793-5.2158203-2.7304611-4.1874247-6.5631142-5.2141132-11.375-6.09375-1.6800537-.3120117-3.3555908-.5537109-5.0927734-.748291-1.725708-3.7565918-4.9413452-6.2526855-8.2983398-6.392334-3.5200195-.1813965-7.0507813 2.3326416-8.8951416 6.2062988-1.4187622.1049805-2.8505859.2241211-4.3133545.3659668-3.1108398.2841797-6.5917969 1.4277344-8.8657227 2.9111328-1.3029785.845459-2.3892212 1.9997559-3.1610718 3.3212891-1.1409302 1.2562256-1.5617065 3.3901367-.7214355 4.8643799.6223755 1.0919189 1.7530518 1.6331787 3.0095215 1.9121094-.9847414 9.1273192-.7882082 18.3458251-.1817018 27.5065917zm44.0253906 3.7022705c-.1245117 4.7304688-4.1098633 8.703125-9.4770508 9.4453125-7.9360352 1.0927734-15.434082 1.0527344-22.2885742-.1191406-5.0776367-.8603516-8.7773438-4.6328125-8.9975586-9.1757813-.5198927-10.592392-1.3876305-20.4927826.0315552-31.0616455 8.1476841.2262573 32.5650902.3146057 39.1594849-1.026001 1.3141479 11.5222168 1.8187865 21.7060547 1.5721435 31.9372559zm-20.959961-49.2919922c2.5552979.1066895 5.0390625 1.9135742 6.5903931 4.7094727-4.2038574-.387207-8.526001-.4239502-13.6640625-.1185303 1.6627197-2.8907471 4.3955689-4.6741944 7.0736694-4.5909424zm-24.3930664 13.0966797c.6157227-1.5292969 1.7817383-2.9335938 3.2001953-3.8544922 2.3720703-1.546875 5.8198242-2.4580078 8.1884651-2.6748047 6.2409935-.6044121 10.1340866-.6855469 12.3520622-.6855469 4.5050964 0 13.4511948 1.1640615 13.8349609 1.2353516 4.4236031.8113155 7.9344635 1.6712008 10.390625 5.4384766.7950783 1.2172356-.0632896 2.8489304-1.53125 2.8964844-15.674305.5198402-30.7819004.3520088-44.7080078.2568359-1.3204783-.0163899-2.2271107-1.361641-1.7270507-2.6123047z" fill="#ffffff" data-original="#000000"></path></g></g></svg>