<svg xmlns="http://www.w3.org/2000/svg" version="1.1" xmlns:xlink="http://www.w3.org/1999/xlink" xmlns:svgjs="http://svgjs.com/svgjs" width="512" height="512" x="0" y="0" viewBox="0 0 180 180" style="enable-background:new 0 0 512 512" xml:space="preserve" class=""><g><path d="m153.753 45.3105c-2.155-1.5424-5.199-1.631-8.351-.2409-2.265 1.0419-4.401 2.3426-6.366 3.8763-5.177 3.9137-9.57 9.1612-13.828 16.5148-.374.6458-.761 1.2831-1.149 1.9204l-.012.021c-.142-2.0973-.164-4.201-.066-6.3009.02-.6747.04-1.3454.051-2.0169l.052-3.0335c.092-5.1851.187-10.5506.046-15.823-.128-4.7447-1.024-8.6263-2.743-11.8672-1.378-2.5978-3.347-4.2662-5.695-4.8182-2.349-.552-4.851.0564-7.242 1.7636-.839.6322-1.632 1.3245-2.372 2.0714-.239.2297-.483.4646-.738.7036-.038-.256-.072-.5042-.106-.7464-.101-.8643-.254-1.7217-.459-2.5676-.124-.4653-.24-.9352-.357-1.4064-.368-1.7343-.914-3.426-1.629-5.048-1.398-2.8839-3.5314-4.7288-6.0065-5.1942-2.5446-.4804-5.3019.5113-7.7612 2.7907-3.5067 3.2502-4.9803 7.5846-5.8716 10.9983-2.6115 9.9999-3.428 20.124-4.1572 31.373-.2527 3.9019-.3537 7.7696-.4594 11.8658-.0446 1.698-.09 3.4236-.1471 5.1852l-.5847-.319c-.5756-.3144-1.018-.5566-1.4702-.7791-4.1284-2.0379-9.1035-4.0824-14.6613-3.7739l-.6767.036c-2.5972.0693-5.1844.3493-7.7362.8375-9.9908 2.2073-17.0032 8.184-20.8421 17.7639-1.1735 2.9286-1.1375 5.6714.105 7.9325 1.2687 2.3084 3.749 3.9127 6.9835 4.5177 3.0922.603 6.298.018 8.9787-1.6364.6563-.3938 1.3081-.7994 1.9592-1.2037.7784-.4844 1.5562-.9681 2.3451-1.4334 4.0503-2.3878 8.4122-2.6805 12.9633-.8697 1.5637.6334 2.9737 1.5949 4.1353 2.8183 1.1616 1.2239 2.0478 2.6819 2.5993 4.2769.5585 1.536.7816 3.175.6545 4.805-.1272 1.63-.6016 3.215-1.3915 4.646-1.0364 1.817-2.3362 3.47-3.8573 4.906-1.9622 1.939-4.5568 3.108-7.3093 3.291s-5.4793-.63-7.6815-2.291c-1.844-1.467-3.5684-3.078-5.1568-4.819-.745-.774-1.5162-1.575-2.2972-2.335-.6426-.624-1.2773-1.291-1.8916-1.937-1.3512-1.514-2.8459-2.893-4.4631-4.118-3.2896-2.324-7.1763-2.808-10.397-1.295-3.2206 1.514-5.3164 4.791-5.6235 8.782-.1751 2.6-.0208 5.211.4594 7.772 1.0061 5.652 3.5593 10.784 6.3107 15.981 5.8696 11.086 13.8613 18.926 23.7529 23.305 9.4651 4.189 18.9209 6.287 28.277 6.287 6.4117-.008 12.7848-.987 18.9021-2.907 11.324-3.523 19.311-10.985 23.738-22.181 3.056-7.728 4.988-16.315 5.907-26.254.643-6.95 1.304-13.186 2.02-19.062.126-1.6179.621-3.1852 1.444-4.5826 2.527-3.7949 5.164-7.6135 7.715-11.3001 2.342-3.3881 4.764-6.8917 7.096-10.3703 2.258-3.3594 4.324-6.8435 6.189-10.4357.988-1.9348 1.599-4.0407 1.798-6.2044.305-3.4602-.763-6.3238-2.926-7.8714zm-75.3348 72.0195c3.1701-4.836 3.5205-10.889.9615-16.608-2.8564-6.3824-8.7234-11.11-14.9474-12.0452-6.0383-.9064-11.289.1017-16.0475 3.0847-.3662.2298-.7259.4752-1.0862.722-.8063.5973-1.6778 1.1007-2.5978 1.5011-1.2745.5322-2.652.7718-4.0313.7022-1.1158-.1174-1.879-.4673-2.2597-1.0403-.4096-.6163-.4273-1.5574-.0532-2.7966 1.5936-5.2724 5.1588-9.1671 10.5979-11.5745 7.1941-3.1853 13.9143-3.2162 20.5387-.1018l.3479.1635c3.3565 1.5752 6.5273 3.0631 8.4635 6.4124.9983 1.7275 2.6358 2.4429 4.383 1.9126 2.1659-.6564 2.2703-2.653 2.3457-4.1087.1641-3.1662.3093-6.3345.455-9.5026.3314-7.2427.6753-14.7314 1.2469-22.0759.573-7.3194 1.5045-15.949 4.0694-24.4598.6406-1.9947 1.5207-3.9043 2.6214-5.6871.4378-.6179.9865-1.1492 1.6179-1.5667.2251-.172.4489-.3426.6603-.5185 1.6776 1.19 1.9309 2.7698 2.0661 4.5537.0814 1.0692.17 2.139.2586 3.2095.4627 4.4961.6557 9.0158.5782 13.535-.3452 9.0982-.9431 18.3413-1.5214 27.2806-.2159 3.3386-.4279 6.6772-.6359 10.0157-.0335.5521-.1221 1.1159-.2081 1.6653-.0689.4417-.1378.8828-.1825 1.3265-.2881 2.8846.6984 4.8772 2.6372 5.3307.3945.0893.8034.0945 1.1998.0158.3968-.0794.7718-.2415 1.1018-.4752.599-.4647 1.099-1.0462 1.469-1.7085.37-.6629.602-1.3934.683-2.1475.47-2.9489.806-6.1342 1.024-9.7381.397-6.5752.748-13.2633 1.088-19.7309.142-2.7229.286-5.4459.432-8.1688.239-4.4382 2.021-8.5324 5.448-12.5216 1.035-1.2051 1.969-1.7531 2.715-1.5825.71.1628 1.287 1.0056 1.667 2.4377.831 2.8775 1.285 5.8509 1.349 8.8455.013 6.9395-.262 13.999-.53 20.8262l-.053 1.3718c-.143 3.7116-.357 7.4823-.564 11.1335-.126 2.2269-.252 4.4539-.363 6.6822-.045.9163-.01 1.8351.103 2.7455.031.6957.294 1.3619.747 1.8902.454.529 1.072.8907 1.755 1.0272 1.54.3203 2.737-.2934 3.657-1.8745 3.167-5.4424 6.492-11.1001 9.883-16.8162 3.826-6.4491 7.751-11.0067 12.351-14.3429 1.109-.7721 2.259-1.4831 3.446-2.1298.482-.2743.965-.5487 1.444-.8316l.562.384c-.145.4391-.277.8853-.408 1.3316-.284 1.1272-.698 2.2175-1.233 3.249-2.147 3.7221-4.484 7.2604-6.281 9.9278l-.54.8c-3.398 5.0453-6.912 10.2625-10.544 15.2626-4.774 6.5719-6.432 13.9143-7.461 22.9127-1.079 9.471-2.301 20.205-5.794 30.249-3.807 10.939-11.436 17.562-22.6802 19.684-11.4795 2.237-23.3552 1.231-34.2949-2.905-9.4513-3.555-16.9145-10.231-22.177-19.844-2.8223-5.156-5.4312-10.268-6.3251-16.086-.2067-1.294-.2273-2.611-.0611-3.91.0091-.232.0753-.458.1928-.658s.2825-.368.4806-.49c.1332-.063.2792-.095.4266-.093.3094.013.6099.106.8716.272 1.0183.628 1.9459 1.392 2.7567 2.272l.4344.452c1.7722 1.838 3.6014 3.737 5.2225 5.742 3.0461 3.77 7.1738 6.498 12.6201 8.344 6.016 2.034 11.9335.934 17.1152-3.19 2.966-2.366 5.2935-5.667 6.786-7.944z" fill="#ffffff" data-original="#000000" class=""></path></g></svg>